<?xml version="1.0" encoding="UTF-8" standalone="no"?>
<svg
   xmlns:dc="http://purl.org/dc/elements/1.1/"
   xmlns:cc="http://creativecommons.org/ns#"
   xmlns:rdf="http://www.w3.org/1999/02/22-rdf-syntax-ns#"
   xmlns:svg="http://www.w3.org/2000/svg"
   xmlns="http://www.w3.org/2000/svg"
   viewBox="0 0 1333.3333 1333.3333"
   height="1333.3333"
   width="1333.3333"
   xml:space="preserve"
   id="svg2"
   version="1.1"><metadata
     id="metadata8"><rdf:RDF><cc:Work
         rdf:about=""><dc:format>image/svg+xml</dc:format><dc:type
           rdf:resource="http://purl.org/dc/dcmitype/StillImage" /></cc:Work></rdf:RDF></metadata><defs
     id="defs6"><clipPath
       id="clipPath26"
       clipPathUnits="userSpaceOnUse"><path
         id="path24"
         d="M 0,1000 H 1000 V 0 H 0 Z" /></clipPath></defs><g
     transform="matrix(1.3333333,0,0,-1.3333333,0,1333.3333)"
     id="g10"><text
       id="text14"
       style="font-variant:normal;font-weight:600;font-stretch:normal;font-size:222.61410522px;font-family:'Poppins SemiBold';-inkscape-font-specification:Poppins-SemiBold;writing-mode:lr-tb;fill:#84ce43;fill-opacity:1;fill-rule:nonzero;stroke:none"
       transform="matrix(1,0,0,-1,62.9365,224.5322)"><tspan
         id="tspan12"
         y="0"
         x="0 150.0419 306.98483 371.76553 438.54977 577.461 699.2309">KAI SEA</tspan></text>
<text
       id="text18"
       style="font-variant:normal;font-weight:300;font-stretch:normal;font-size:61.56919861px;font-family:'Poppins Light';-inkscape-font-specification:Poppins-Light;writing-mode:lr-tb;fill:#84ce43;fill-opacity:1;fill-rule:nonzero;stroke:none"
       transform="matrix(1,0,0,-1,60.2192,147.9307)"><tspan
         id="tspan16"
         y="0"
         x="0 53.257359 89.952599 149.05904 202.31639 248.55486 278.10806 340.47766 393.73505 441.94373 466.57141 519.33618 572.59357 618.83203 648.38525 707.4917 759.20978 783.83746 820.53271">ALGAS MARINAS CHILE</tspan></text>
<g
       id="g20"><g
         clip-path="url(#clipPath26)"
         id="g22"><g
           transform="translate(495.2534,864.6514)"
           id="g28"><path
             id="path30"
             style="fill:#84ce43;fill-opacity:1;fill-rule:nonzero;stroke:none"
             d="m 0,0 c -8.46,-0.337 -16.646,0.672 -24.651,-1.562 -1.943,-0.543 -4.001,-0.679 -6.007,-0.995 -9.463,-1.49 -18.892,-3.336 -27.911,-6.5 -13.216,-4.635 -26.078,-10.222 -38.002,-17.668 -10.132,-6.327 -20.243,-12.674 -28.79,-21.232 -4.785,-4.791 -9.51,-9.597 -13.847,-14.799 -2.887,-3.461 -6.106,-6.645 -8.975,-10.12 -4,-4.844 -7.267,-10.22 -10.683,-15.48 -1.845,-2.842 -4.027,-5.59 -5.222,-8.701 -1.632,-4.248 -3.649,-8.299 -5.829,-12.219 -4.256,-7.655 -6.759,-15.987 -9.464,-24.173 -2.423,-7.332 -3.507,-15.117 -5.105,-22.715 -2.084,-9.907 -2.323,-19.866 -2.525,-29.811 -0.211,-10.386 0.325,-20.785 2.306,-31.113 1.178,-6.145 2.997,-12.147 3.836,-18.36 0.88,-6.513 4.034,-12.287 6.361,-18.308 4.251,-11 9.008,-21.76 15.722,-31.578 6.021,-8.806 11.54,-17.917 18.947,-25.747 10.286,-10.872 20.842,-21.327 33.46,-29.586 9.966,-6.523 20.223,-12.452 31.113,-17.257 6.974,-3.077 14.119,-5.785 21.457,-7.82 7.324,-2.031 14.707,-3.816 22.263,-5.005 9.308,-1.465 18.631,-2.35 28.024,-2.665 6.277,-0.212 12.52,0.53 18.776,0.844 9.686,0.485 19.195,1.849 28.595,4.045 14.005,3.271 27.428,8.294 40.296,14.635 11.505,5.671 22.155,12.849 32.438,20.49 7.791,5.787 14.077,13.254 21.096,19.905 6.155,5.832 10.963,12.724 15.682,19.635 5.587,8.181 10.73,16.66 14.805,25.759 3.431,7.664 6.901,15.298 9.914,23.146 2.06,5.366 2.51,11.043 3.887,16.533 2.58,10.286 4.385,20.708 4.579,31.33 0.267,14.674 0.269,29.356 -2.655,43.833 -2.603,12.891 -5.624,25.671 -10.927,37.791 -4.088,9.342 -8.671,18.43 -14.122,27.051 -2.892,4.575 -6.001,9.015 -9.069,13.479 -4.056,5.9 -8.922,11.048 -13.781,16.236 -5.343,5.704 -10.769,11.42 -16.849,16.24 -11.497,9.111 -23.603,17.405 -37.06,23.55 C 69.573,-13.2 57.014,-7.821 43.432,-4.98 35.225,-3.263 26.94,-2.107 18.716,-0.552 12.426,0.637 6.005,-0.38 0,0 m -1.276,-390.664 c -13.192,-0.324 -27.533,1.315 -41.787,4.39 -16.014,3.454 -31.332,8.823 -46.043,15.889 -11.374,5.464 -22.21,11.941 -32.271,19.587 -17.198,13.069 -32.301,28.191 -44.767,45.922 -10.462,14.88 -18.689,30.9 -24.959,47.922 -5.142,13.96 -8.199,28.438 -10.388,43.148 -1.989,13.361 -1.638,26.766 -1.203,40.147 0.242,7.46 1.606,14.916 2.912,22.295 0.552,3.116 0.87,6.351 1.947,9.346 1.73,4.813 1.991,9.958 3.851,14.777 1.915,4.965 3.387,10.111 5.38,15.068 1.964,4.884 4.181,9.648 6.411,14.413 5.238,11.19 11.88,21.536 19.17,31.446 7.559,10.276 16.432,19.4 25.815,28.036 8.038,7.396 16.525,14.26 25.66,20.195 10.956,7.118 22.412,13.34 34.639,18.187 9.977,3.955 20.131,7.243 30.525,9.729 8.73,2.087 17.629,3.438 26.572,4.421 6.906,0.759 13.872,1.077 20.76,0.828 8.594,-0.31 17.324,0.562 25.778,-1.5 4.893,-1.193 9.875,-1.813 14.789,-2.84 6.427,-1.344 12.472,-4.055 18.899,-5.105 8.137,-1.329 15.467,-4.788 22.819,-8.046 12.538,-5.556 24.498,-12.302 35.56,-20.446 7.895,-5.812 15.791,-11.708 22.066,-19.39 1.433,-1.755 3.566,-2.574 5.092,-4.178 5.025,-5.282 9.703,-10.847 14.271,-16.535 5.214,-6.493 9.895,-13.321 14.202,-20.417 5.777,-9.514 10.553,-19.525 14.63,-29.883 3.078,-7.819 5.88,-15.744 7.733,-23.927 2.931,-12.948 5.677,-25.896 5.803,-39.339 0.101,-10.694 0.447,-21.393 -0.382,-32.043 -0.583,-7.481 -2.056,-14.89 -3.902,-22.212 -0.844,-3.344 -1.216,-6.825 -2.162,-10.166 -3.537,-12.5 -7.957,-24.664 -13.705,-36.338 -4.656,-9.456 -9.771,-18.651 -16.157,-27.042 -5.162,-6.783 -10.338,-13.559 -16.132,-19.861 -7.283,-7.921 -14.859,-15.546 -23.26,-22.222 -11.342,-9.015 -23.38,-17.073 -36.528,-23.297 -10.115,-4.789 -20.463,-8.937 -31.174,-12.331 -12.43,-3.941 -25.135,-6.19 -37.974,-7.912 -6.995,-0.938 -14.065,-0.725 -22.49,-0.716" /></g><g
           transform="translate(586.3818,799.9619)"
           id="g32"><path
             id="path34"
             style="fill:#84ce43;fill-opacity:1;fill-rule:nonzero;stroke:none"
             d="m 0,0 c 0.173,-6.509 -1.465,-12.73 -2.682,-19.061 -2.027,-10.551 -6.628,-20.082 -10.61,-29.892 -4.548,-11.204 -10.943,-21.382 -17.512,-31.402 -8.237,-12.565 -17.807,-24.094 -28.426,-34.811 -12.216,-12.328 -25.771,-22.728 -40.969,-31.041 -2.026,-1.108 -2.147,-2.059 -0.412,-3.341 8.317,-6.144 14.069,-14.391 18.884,-23.336 4.342,-8.066 7.883,-16.561 13.08,-24.17 6.123,-8.966 12.985,-17.278 22.332,-23.028 6.264,-3.853 12.836,-7.286 19.842,-9.625 4.832,-1.612 9.455,-0.297 13.409,2.72 2.34,1.787 4.388,3.994 6.209,6.366 4.405,5.742 5.072,12.199 3.796,19.074 -0.276,1.493 -0.267,3.038 -0.476,4.547 -0.403,2.913 1.096,4.833 3.505,5.858 6.869,2.921 14.014,3.487 21.079,0.993 6.444,-2.275 8.252,-5.303 7.218,-12.113 -0.982,-6.461 -3.825,-12.092 -8.525,-16.876 -2.28,-2.32 -4.132,-5.066 -6.753,-7.112 -4.114,-3.211 -8.532,-5.866 -13.511,-7.465 -7.614,-2.445 -15.352,-4.29 -23.429,-3.968 -10.875,0.435 -21.019,3.469 -30.403,8.954 -4.465,2.608 -8.92,5.258 -13.202,8.153 -7.438,5.03 -13.064,11.815 -17.633,19.45 -5.329,8.9 -9.231,18.523 -13.698,27.859 -2.865,5.991 -6.283,11.644 -10.323,16.913 -1.192,1.553 -2.602,2.896 -4.284,3.95 -1.163,0.728 -2.302,0.996 -3.61,0.443 -1.435,-0.607 -2.943,-0.697 -4.495,-0.637 -2.396,0.091 -3.409,-0.855 -3.075,-3.156 1.974,-13.571 2.21,-27.311 4.226,-40.897 1.14,-7.68 1.943,-15.449 2.896,-23.173 0.837,-6.79 2.525,-13.47 3.594,-20.237 1.599,-10.12 4.267,-20.006 6.264,-30.036 0.424,-2.126 0.299,-4.408 0.125,-6.594 -0.155,-1.939 -1.639,-3.14 -3.277,-3.95 -8.332,-4.122 -21.158,-2.465 -25.749,9.156 -2.959,7.492 -4.764,15.326 -7.256,22.948 -1.269,3.881 -2.242,7.834 -3.161,11.763 -2.016,8.627 -4.405,17.171 -5.407,26.048 -0.785,6.958 -1.685,13.927 -3.056,20.832 -0.951,4.789 -0.858,9.776 -1.423,14.653 -1.1,9.504 -1.459,19.067 -2.399,28.588 -0.923,9.349 -1.13,18.769 -1.289,28.183 -0.221,13.059 -1.206,26.106 -0.847,39.178 0.476,17.382 0.624,34.79 1.746,52.134 0.553,8.566 1.391,17.178 2.561,25.742 0.996,7.292 2.314,14.522 3.367,21.798 1.166,8.048 6.672,13.041 15.253,13.541 2.61,0.153 5.233,0.175 7.869,-0.233 3.978,-0.616 5.856,-3.163 6.676,-6.728 0.922,-4.007 0.716,-8.101 0.52,-12.164 -0.184,-3.803 -0.707,-7.594 -0.81,-11.397 -0.205,-7.548 -1.61,-14.98 -2.008,-22.504 -0.201,-3.812 -0.354,-7.627 -0.582,-11.438 -1.413,-23.576 -1.327,-47.177 -0.897,-70.771 0.205,-11.258 1.181,-22.502 1.781,-33.755 0.091,-1.694 0.012,-3.397 0.058,-5.095 0.073,-2.697 1.256,-3.484 3.773,-2.444 2.932,1.211 5.481,3.206 7.762,5.226 5.575,4.937 11.342,9.674 16.525,15.062 17.555,18.249 32.711,38.262 44.748,60.571 7.621,14.126 14.606,28.568 19.52,43.88 1.932,6.02 4.24,11.939 5.416,18.224 0.648,3.464 2.151,6.776 3.356,10.125 2.308,6.414 7.743,7.261 13.701,6.986 4.349,-0.2 8.004,-1.891 9.672,-6.19 C -0.484,8.853 -0.163,6.194 -0.012,3.567 0.057,2.382 0,1.189 0,0" /></g><g
           transform="translate(541.3662,637.1606)"
           id="g36"><path
             id="path38"
             style="fill:#84ce43;fill-opacity:1;fill-rule:nonzero;stroke:none"
             d="m 0,0 c -8.994,0.125 -17.949,0.759 -26.613,3.341 -5.679,1.692 -11.259,3.741 -16.398,6.796 -0.746,0.443 -2.273,1.196 -2.306,2.167 -0.033,0.94 1.471,1.062 2.222,1.214 5.833,1.178 9.892,5.387 14.567,8.52 9.175,6.149 16.28,14.589 24.231,22.096 8.096,7.645 17.54,12.373 28.912,11.392 5.966,-0.514 11.06,-3.656 15.075,-8.161 6.118,-6.862 8.119,-15.006 6.397,-23.903 C 45.05,18.108 41.575,14.016 37.453,10.599 29.776,4.232 21.054,0.615 10.93,0.423 7.295,0.354 3.652,0.031 0,0" /></g><g
           transform="translate(595.5811,719.9722)"
           id="g40"><path
             id="path42"
             style="fill:#84ce43;fill-opacity:1;fill-rule:nonzero;stroke:none"
             d="m 0,0 c 11.822,-0.036 22.008,-1.232 32.181,-3.313 9.07,-1.855 17.368,-5.111 24.893,-10.389 4.278,-2.999 7.35,-6.93 8.916,-12.034 2.727,-8.882 -3.831,-16.081 -11.136,-18.41 -12.734,-4.058 -24.876,-1.694 -36.789,3.617 -12.052,5.372 -22.252,13.61 -33.153,20.776 -4.599,3.024 -9.372,5.81 -14.488,7.929 -0.47,0.195 -0.935,0.416 -1.365,0.684 -1.378,0.857 -3.734,1.672 -3.65,3.552 -0.002,1.606 2.677,2.296 4.07,2.77 7.249,2.464 14.678,3.945 22.347,4.388 C -4.959,-0.245 -1.756,0.051 0,0" /></g><g
           transform="translate(419.3994,705.687)"
           id="g44"><path
             id="path46"
             style="fill:#84ce43;fill-opacity:1;fill-rule:nonzero;stroke:none"
             d="m 0,0 c 0.155,-2.783 -0.023,-4.722 0.452,-8.867 0.019,-1.148 -0.162,-2.128 -1.298,-2.455 -1.003,-0.289 -1.815,0.378 -2.311,1.211 -0.738,1.238 -1.375,2.537 -2.031,3.821 -4.03,7.891 -10.562,13.833 -16.02,20.613 -9.109,11.318 -17.977,22.817 -22.568,36.874 -3.146,9.632 -3.475,19.512 -1.137,29.332 1.355,5.692 5.407,9.751 10.137,12.932 1.987,1.336 4.537,0.914 6.655,-0.041 6.005,-2.707 10.159,-7.364 13.382,-13.02 C -8.866,70.091 -5.815,58.84 -3.75,47.309 -2.078,37.973 -1.245,28.524 -0.929,19.026 -0.721,12.768 0.148,6.536 0,0" /></g><g
           transform="translate(355.5947,737.4512)"
           id="g48"><path
             id="path50"
             style="fill:#84ce43;fill-opacity:1;fill-rule:nonzero;stroke:none"
             d="m 0,0 c 5.753,-0.535 7.081,-1.409 10.687,-3.248 6.693,-3.83 13.124,-8.072 18.936,-13.205 9.637,-8.511 18.097,-18.089 25.785,-28.353 3.872,-5.168 7.121,-10.746 9.83,-16.62 0.538,-1.167 1.155,-2.59 -0.24,-3.417 -1.239,-0.735 -2.142,0.374 -2.937,1.309 -1.686,1.982 -3.803,3.304 -6.269,4.166 -6.731,2.352 -13.549,4.097 -20.72,4.675 -7.93,0.639 -15.709,2.425 -23.461,4.217 -7.807,1.805 -15.443,4 -21.548,9.61 -6.573,6.039 -10.543,13.067 -9.175,22.449 1.109,7.6 4.845,13.196 11.521,16.905 C -4.594,-0.296 -3.429,0.025 0,0" /></g><g
           transform="translate(383.8804,577.769)"
           id="g52"><path
             id="path54"
             style="fill:#84ce43;fill-opacity:1;fill-rule:nonzero;stroke:none"
             d="m 0,0 c -10.356,0.237 -17.661,3.624 -22.698,10.962 -3.988,5.81 -4.108,12.011 -0.053,18.497 5.125,8.2 11.197,15.471 18.289,21.893 5.633,5.1 11.059,8.975 18.408,13.396 l 5.181,3.186 5.903,3.625 c 0,0 4.595,3.042 6.898,4.537 0.849,0.551 2.554,1.62 2.554,1.62 1.46,0.923 3.082,1.126 3.824,-0.103 C 39.015,76.44 37.812,74.647 36.905,73.856 33.805,71.149 32.901,67.421 31.789,63.66 28.683,53.167 28.959,42.238 27.299,31.568 25.449,19.678 21.585,10.932 11.559,4.172 8.124,2.1 4.943,0.227 0,0" /></g><g
           transform="translate(620.1016,777.8452)"
           id="g56"><path
             id="path58"
             style="fill:#84ce43;fill-opacity:1;fill-rule:nonzero;stroke:none"
             d="m 0,0 c 0.018,-6.527 -2.38,-12.141 -5.007,-17.796 -3.869,-8.33 -9.742,-15.046 -16.205,-21.324 -5.045,-4.9 -8.593,-7.78 -15.437,-9.689 -1.009,-0.281 -4.34,-0.981 -5.353,-0.998 -3.015,-0.05 -5.69,-1.381 -2.852,4.732 4.602,10.533 7.403,21.627 9.492,32.844 1.017,5.464 1.899,10.993 2.888,16.478 0.855,4.739 2.162,9.39 6.527,12.474 5.555,3.924 12.584,3.812 18.094,-0.406 C -2.397,12.14 0.225,6.683 0,0" /></g><g
           transform="translate(381.814,679.0635)"
           id="g60"><path
             id="path62"
             style="fill:#84ce43;fill-opacity:1;fill-rule:nonzero;stroke:none"
             d="m 0,0 c 13.212,0.324 24.61,-3.824 35.242,-10.443 1.854,-1.155 4.052,-2.35 5.459,-3.666 0.49,-0.607 1.102,-1.15 0.703,-2.002 -0.326,-0.695 -1.006,-0.895 -1.721,-0.838 -4.707,0.137 -9.079,-2.807 -12.995,-5.64 l -6.03,-4.304 c -2.273,-1.671 -4.073,-3.454 -7.304,-5.841 -6.969,-4.953 -17.752,-8.089 -27.729,-4.122 -10.935,4.347 -17.146,17.939 -9.4,28.595 3.207,4.413 8.027,6.557 13.139,7.513 C -7.028,-0.072 -3.264,0.412 0,0" /></g><g
           transform="translate(472.4292,791.874)"
           id="g64"><path
             id="path66"
             style="fill:#84ce43;fill-opacity:1;fill-rule:nonzero;stroke:none"
             d="M 0,0 C -0.574,6.222 -0.017,13.37 2.273,20.105 5.712,30.221 10.755,39.324 21.288,43.981 30.125,47.889 38.601,41.05 39.011,32.887 39.582,21.523 34.705,12.247 27.82,3.716 24.223,-0.74 20.049,-4.533 15.343,-7.762 11.728,-10.242 9.061,-13.66 6.196,-16.888 5.471,-17.707 4.333,-20.064 3.043,-20.072 1.22,-20.083 0.606,-17.884 0.43,-15.92 -0.018,-10.933 -0.169,-5.941 0,0" /></g><g
           transform="translate(547.7881,522.9561)"
           id="g68"><path
             id="path70"
             style="fill:#84ce43;fill-opacity:1;fill-rule:nonzero;stroke:none"
             d="m 0,0 c -8.288,0.221 -14.565,4.417 -19.321,10.713 -6.426,8.508 -12.351,17.391 -18.518,26.095 -1.076,1.519 -2.319,2.918 -3.412,4.425 -0.557,0.769 -0.904,1.68 -0.31,2.612 0.566,0.887 1.457,1.102 2.447,1.027 0.337,-0.026 0.701,0.002 1.005,-0.117 11.414,-4.449 23.827,-3.797 35.492,-6.966 C 3.96,36.001 10.272,33.493 14.418,27.874 18.532,22.299 19.176,15.867 15.914,9.621 12.64,3.351 7.205,0.115 0,0" /></g><g
           transform="translate(570.8115,597.8101)"
           id="g72"><path
             id="path74"
             style="fill:#84ce43;fill-opacity:1;fill-rule:nonzero;stroke:none"
             d="m 0,0 c 0.482,-5.014 -1.902,-8.966 -6.117,-11.756 -4.029,-2.668 -8.424,-1.736 -12.737,-0.536 -12.593,3.504 -19.75,13.098 -26.134,23.472 -3.503,5.693 -6.241,11.849 -10.221,17.258 -0.996,1.355 -2.27,2.505 -3.419,3.748 -0.685,0.741 -1.082,1.571 -0.498,2.523 0.538,0.877 1.462,0.811 2.291,0.627 9.904,-2.19 20.003,-3.78 29.503,-7.375 7.986,-3.022 15.727,-6.72 21.557,-13.465 C -2.386,10.575 -0.004,5.437 0,0" /></g><g
           transform="translate(555.8291,817.0718)"
           id="g76"><path
             id="path78"
             style="fill:#84ce43;fill-opacity:1;fill-rule:nonzero;stroke:none"
             d="m 0,0 c -0.232,-3.072 -2.536,-6.346 -4.721,-9.498 -6.374,-9.195 -14.723,-16.33 -24.299,-22.038 -4.817,-2.872 -9.906,-5.2 -15.108,-7.299 -3.209,-1.296 -6.595,-1.436 -9.946,-1.81 -1.12,-0.125 -3.64,-0.354 -4.16,0.78 -0.434,0.946 1.412,2.468 2.037,3.183 5.374,6.148 8.737,13.494 12.314,20.702 4.382,8.832 9.745,16.927 17.833,22.782 5.863,4.244 12.344,6.295 19.594,3.68 C -2.753,9.147 0.016,5.093 0,0" /></g><g
           transform="translate(590.0322,615.5669)"
           id="g80"><path
             id="path82"
             style="fill:#84ce43;fill-opacity:1;fill-rule:nonzero;stroke:none"
             d="m 0,0 c -10.343,0.778 -20.454,2.351 -29.212,8.595 -1.306,0.931 -2.753,1.661 -4.088,2.555 -0.749,0.503 -1.134,1.274 -0.899,2.211 0.254,1.014 1.077,1.144 1.963,1.277 4.637,0.693 8.949,2.317 13.243,4.202 5.106,2.242 9.447,5.738 14.548,8.036 6.583,2.966 13.387,4.927 20.443,5.53 5.591,0.478 11.161,-0.509 15.306,-5.198 C 34.915,23.123 34.88,16.399 31.175,12.366 24.738,5.359 16.656,1.784 7.36,0.562 4.917,0.24 2.483,-0.014 0,0" /></g><g
           transform="translate(518.2666,532.9219)"
           id="g84"><path
             id="path86"
             style="fill:#84ce43;fill-opacity:1;fill-rule:nonzero;stroke:none"
             d="m 0,0 c 0.345,-9.167 -8.944,-20.217 -20.746,-18.089 -3.372,0.608 -5.715,2.943 -7.329,5.831 -2.878,5.149 -4.376,10.717 -5.477,16.545 -1.179,6.239 -2.301,12.473 -3.058,18.771 -0.373,3.105 -0.679,6.235 -0.724,9.359 -0.034,2.39 -0.572,4.708 -0.634,7.078 -0.02,0.787 0.042,1.577 0.845,1.984 0.865,0.438 1.656,0.186 2.32,-0.467 5.662,-5.561 12.84,-9.133 18.786,-14.321 C -9.419,20.936 -3.658,14.583 -0.89,6.004 -0.226,3.945 0.183,1.911 0,0" /></g><g
           transform="translate(435.6309,542.9146)"
           id="g88"><path
             id="path90"
             style="fill:#84ce43;fill-opacity:1;fill-rule:nonzero;stroke:none"
             d="m 0,0 c -0.037,-6.336 -7.085,-14.192 -15.342,-9.347 -5.035,2.954 -7.865,7.518 -9.766,12.587 -2.918,7.777 -4.184,15.946 -2.546,24.213 0.997,5.035 2.574,9.949 4.889,14.617 2.352,4.745 5.336,9.296 5.415,14.909 0.014,0.98 0.495,3.52 1.765,3.52 1.188,0 1.715,-2.314 1.927,-3.409 0.801,-4.151 1.448,-8.34 2.459,-12.439 1.457,-5.904 3.171,-11.739 5.034,-17.54 C -3.326,18.27 0.004,9.509 0,0" /></g><g
           transform="translate(627.8721,723.8447)"
           id="g92"><path
             id="path94"
             style="fill:#84ce43;fill-opacity:1;fill-rule:nonzero;stroke:none"
             d="m 0,0 c -8.338,0.396 -13.605,1.408 -21.837,1.406 -2.03,-10e-4 -6.907,-0.257 -8.988,-0.298 -3.585,-0.069 -5.457,-0.094 -4.299,1.348 0.647,0.807 2.587,2.319 2.587,2.319 0,0 3.867,3.083 5.048,4.313 4.411,4.593 8.283,8.449 13.075,12.651 4.357,3.82 9.255,6.703 14.991,7.628 C 8.432,30.632 18.078,26.166 20.586,17.363 21.375,14.592 22.142,11.868 21.354,8.9 20.556,5.889 18.666,3.794 16.081,2.468 13.276,1.03 11.53,0.602 7.367,0.285 7.367,0.285 3.65,-0.131 0,0" /></g><g
           transform="translate(652.2754,620.9692)"
           id="g96"><path
             id="path98"
             style="fill:#84ce43;fill-opacity:1;fill-rule:nonzero;stroke:none"
             d="m 0,0 c -0.065,-6.18 -3.856,-10.156 -8.49,-13.312 -1.99,-1.355 -4.589,-0.97 -6.533,1 -3.523,3.569 -5.093,8.069 -6.432,12.77 -1.443,5.066 -1.107,10.459 -2.991,15.409 -1.407,3.697 -2.516,7.569 -5.395,10.517 -0.79,0.808 -3.069,2.475 -2.747,3.494 0.371,1.173 2.428,0.934 4.536,0.632 2.647,-0.379 5.699,-1.464 9.692,-3.373 C -10.811,22.397 -4.847,16.123 -1.409,7.733 -0.404,5.279 0.021,2.69 0,0" /></g><g
           transform="translate(400.9639,805.5576)"
           id="g100"><path
             id="path102"
             style="fill:#84ce43;fill-opacity:1;fill-rule:nonzero;stroke:none"
             d="m 0,0 c 0.095,5.958 3.685,11.051 9.213,13.023 7.645,2.727 11.873,0.29 14.474,-7.519 1.62,-4.862 0.753,-9.5 0.289,-14.271 -0.543,-5.572 -2.132,-10.934 -3.127,-16.413 -0.198,-1.09 -0.496,-2.005 -1.615,-2.337 -0.966,-0.286 -1.965,-0.109 -2.479,0.809 C 13.16,-20.271 6.529,-16.309 3.031,-9.786 1.375,-6.699 0.053,-3.554 0,0" /></g><g
           transform="translate(639.6523,597.9038)"
           id="g104"><path
             id="path106"
             style="fill:#84ce43;fill-opacity:1;fill-rule:nonzero;stroke:none"
             d="m 0,0 c 0.09,-3.896 -2.386,-6.527 -2.386,-6.527 0,0 -7.499,-11.641 -13.55,-15.854 -3.649,-2.258 -5.545,-4.529 -11.278,-5.664 -0.846,-0.167 -2.92,-0.542 -5.063,-0.484 -1.281,0.035 -3.652,0.216 -4.102,1.529 -0.488,1.428 1.781,2.686 2.654,3.578 4.315,4.411 6.691,10.131 10.186,15.097 2.961,4.207 5.612,8.687 9.728,11.893 3.547,2.763 8.887,4.474 12.167,0.074 C -0.61,2.256 -0.316,1.518 0,0" /></g><g
           transform="translate(336.6338,631.2231)"
           id="g108"><path
             id="path110"
             style="fill:#84ce43;fill-opacity:1;fill-rule:nonzero;stroke:none"
             d="M 0,0 C 0.016,5.3 3.61,8.629 8.587,9.056 15.713,9.666 22.285,7.16 29.076,5.924 30.929,5.587 32.766,5.513 34.604,5.276 35.839,5.117 37.21,4.864 37.635,3.361 38.009,2.039 37.002,1.348 36.205,0.602 31.008,-4.262 24.996,-7.829 18.411,-10.447 11.777,-13.084 5.033,-10.886 1.283,-5.002 0.226,-3.343 -0.167,-1.586 0,0" /></g><g
           transform="translate(658.8965,651.7769)"
           id="g112"><path
             id="path114"
             style="fill:#84ce43;fill-opacity:1;fill-rule:nonzero;stroke:none"
             d="m 0,0 c 0.198,-3.732 -1.753,-6.364 -4.678,-8.186 -2.836,-1.765 -5.699,-0.779 -8.411,0.729 -4.179,2.322 -6.768,6.093 -9.066,10.067 -2.549,4.408 -5.005,8.851 -8.776,12.39 -0.668,0.626 -3.075,2.021 -2.658,3.056 0.35,0.867 2.876,0.463 3.773,0.574 13.004,0.322 19.107,-1.133 26.073,-9.195 C -1.359,6.676 0.012,3.644 0,0" /></g><g
           transform="translate(327.9238,678.4648)"
           id="g116"><path
             id="path118"
             style="fill:#84ce43;fill-opacity:1;fill-rule:nonzero;stroke:none"
             d="m 0,0 c 0.018,6.396 2.646,9.013 8.736,10.412 5.598,1.285 10.68,0.502 15.816,-1.591 C 26.9,7.864 29.381,7.24 31.781,6.405 32.673,6.094 33.518,5.566 33.661,4.521 33.812,3.414 32.977,2.728 32.176,2.346 25.711,-0.733 20.495,-5.692 14.379,-9.333 7.126,-13.652 -0.67,-7.718 -0.003,-1.017 0.03,-0.681 0.001,-0.339 0,0" /></g><g
           transform="translate(586.6475,548.5942)"
           id="g120"><path
             id="path122"
             style="fill:#84ce43;fill-opacity:1;fill-rule:nonzero;stroke:none"
             d="m 0,0 c -7.103,0.306 -13.122,1.616 -18.957,5.075 -0.919,0.545 -2.695,1.852 -2.358,3.081 0.295,1.081 2.251,0.509 3.041,0.283 5.585,-1.59 11.395,2.058 14.755,3.5 3.613,1.986 7.039,3.987 10.754,5.673 5.349,2.427 9.365,1.907 13.025,-2.261 2.497,-2.844 2.317,-5.76 -0.114,-8.647 C 15.378,2.09 12.346,1.86 7.456,0.859 5.144,0.516 3.896,0.214 0,0" /></g><g
           transform="translate(624.3389,661.9976)"
           id="g124"><path
             id="path126"
             style="fill:#84ce43;fill-opacity:1;fill-rule:nonzero;stroke:none"
             d="m 0,0 c 0.001,-3.018 -2.249,-5.015 -4.975,-6.536 -2.916,-1.627 -6.021,-2.665 -9.453,-2.592 -3.563,0.075 -5.033,-0.029 -8.598,-0.021 -1.798,0.004 -3.462,-0.417 -6.424,-1.271 -2.052,-0.477 -4.946,-2.492 -5.888,-1.548 -0.994,0.996 1.777,3.87 2.243,4.731 6.818,9.054 10.711,14.821 20.639,16.493 C -6.191,10.312 0.034,5.902 0,0" /></g><g
           transform="translate(353.8022,760.9912)"
           id="g128"><path
             id="path130"
             style="fill:#84ce43;fill-opacity:1;fill-rule:nonzero;stroke:none"
             d="m 0,0 c -0.334,2.551 0.413,4.679 1.912,6.687 3.802,5.094 8.378,4.906 11.713,-0.536 3.287,-5.362 4.57,-11.429 5.994,-17.415 0.589,-2.482 1.095,-4.927 2.408,-7.141 0.435,-0.732 0.78,-1.497 0.764,-2.387 -0.014,-0.783 -0.019,-1.571 -0.842,-1.969 -0.758,-0.366 -1.507,-0.24 -2.121,0.327 -3.024,2.798 -6.872,4.287 -10.268,6.494 C 3.746,-12.162 0.178,-7.08 0,0" /></g><g
           transform="translate(404.6475,575.6626)"
           id="g132"><path
             id="path134"
             style="fill:#84ce43;fill-opacity:1;fill-rule:nonzero;stroke:none"
             d="m 0,0 c -1.269,-6.579 -0.712,-10.858 -5.164,-16.546 -2.265,-2.895 -5.127,-4.641 -8.607,-5.43 -3.432,-0.778 -8.429,3.175 -8.862,6.772 -0.459,3.814 0.747,6.928 3.416,9.653 3.197,3.264 7.224,5.244 11.076,7.515 1.1,0.648 3.348,2.197 4.543,3.917 0.647,0.93 1.996,3.883 3.43,3.411 C 1.373,8.783 0.656,5.499 0.622,4.497 0.622,4.497 0.058,0.31 0,0" /></g><g
           transform="translate(350.4434,662.4604)"
           id="g136"><path
             id="path138"
             style="fill:#84ce43;fill-opacity:1;fill-rule:nonzero;stroke:none"
             d="m 0,0 c 0.306,-7.709 -5.702,-16.088 -8.671,-17.759 -2.324,-1.63 -7.097,-1.853 -9.703,0.518 -2.654,2.414 -2.832,7.605 -0.64,10.85 1.899,2.812 4.47,4.833 7.408,6.416 2.677,1.443 5.426,2.704 7.423,5.185 1.023,1.271 2.928,0.736 3.701,-1.023 C 0.019,3.046 0.019,1.218 0,0" /></g><g
           transform="translate(515.5996,820.5059)"
           id="g140"><path
             id="path142"
             style="fill:#84ce43;fill-opacity:1;fill-rule:nonzero;stroke:none"
             d="m 0,0 c 0.504,4.989 -0.893,9.573 2.567,13.835 3.94,4.855 7.457,6.595 12.093,3.778 3.086,-1.876 3.874,-4.597 2.141,-7.781 C 15.897,8.172 14.764,6.563 13.199,5.611 9.561,3.395 6.511,0.463 3.17,-2.109 2.461,-2.655 1.726,-3.079 0.844,-2.648 -0.093,-2.19 0.014,-1.266 0,0" /></g><g
           transform="translate(637.042,765.9009)"
           id="g144"><path
             id="path146"
             style="fill:#84ce43;fill-opacity:1;fill-rule:nonzero;stroke:none"
             d="m 0,0 c 0.016,-1.554 -2.368,-4.632 -5.122,-5.842 -4.514,-1.923 -5.318,-2.091 -8.98,-3.489 -2.959,-1.2 -5.572,-3.597 -2.797,2.874 1.742,3.901 2.979,8.185 6.754,10.856 1.836,1.069 3.272,1.986 6.123,0.862 C -1.833,4.422 0.016,2.594 0,0" /></g><g
           transform="translate(344.7485,609.0806)"
           id="g148"><path
             id="path150"
             style="fill:#84ce43;fill-opacity:1;fill-rule:nonzero;stroke:none"
             d="m 0,0 c 0.023,2.776 2.287,5.588 5.498,6.547 2.588,0.773 5.244,1.319 7.862,1.998 1.057,0.274 3.151,0.781 3.864,0.166 C 17.625,7.924 16.69,6.057 16.199,5.281 14.181,2.095 12.833,-1.57 9.633,-3.929 7.598,-5.429 5.396,-6.273 3.006,-5.151 0.942,-4.183 -0.136,-2.381 0,0" /></g><g
           transform="translate(623.0146,609.9243)"
           id="g152"><path
             id="path154"
             style="fill:#84ce43;fill-opacity:1;fill-rule:nonzero;stroke:none"
             d="m 0,0 c -3.762,0.118 -6.877,2.172 -10.166,3.608 -1.813,1.172 -4.223,0.815 -0.249,3.389 3.161,2.047 5.834,4.638 9.729,5.067 C 2.333,12.397 5.782,9.437 5.973,6.366 6.236,2.113 4.263,0.019 0,0" /></g><g
           transform="translate(495.313,880.522)"
           id="g156"><path
             id="path158"
             style="fill:#83c250;fill-opacity:1;fill-rule:nonzero;stroke:none"
             d="m 0,0 c -27.319,0 -53.83,-5.354 -78.796,-15.914 -24.106,-10.196 -45.752,-24.789 -64.337,-43.374 -18.584,-18.585 -33.178,-40.231 -43.373,-64.337 -10.56,-24.965 -15.914,-51.476 -15.914,-78.795 0,-27.32 5.354,-53.831 15.914,-78.796 10.195,-24.106 24.789,-45.752 43.373,-64.337 18.585,-18.585 40.231,-33.178 64.337,-43.374 24.966,-10.56 51.477,-15.913 78.796,-15.913 27.32,0 53.831,5.353 78.796,15.913 24.106,10.196 45.752,24.789 64.337,43.374 18.584,18.585 33.178,40.231 43.373,64.337 10.56,24.965 15.914,51.476 15.914,78.796 0,27.319 -5.354,53.83 -15.914,78.795 -10.195,24.106 -24.789,45.752 -43.373,64.337 -18.585,18.585 -40.231,33.178 -64.337,43.374 C 53.831,-5.354 27.32,0 0,0 m 0,-15.824 c 103.054,0 186.596,-83.542 186.596,-186.596 0,-103.055 -83.542,-186.597 -186.596,-186.597 -103.054,0 -186.596,83.542 -186.596,186.597 0,103.054 83.542,186.596 186.596,186.596" /></g></g></g></g></svg>