<svg id="visual" viewBox="0 0 960 540" width="960" height="540" xmlns="http://www.w3.org/2000/svg" xmlns:xlink="http://www.w3.org/1999/xlink" version="1.1"><path d="M0 323L26.7 331.5C53.3 340 106.7 357 160 357C213.3 357 266.7 340 320 323.3C373.3 306.7 426.7 290.3 480 287.7C533.3 285 586.7 296 640 308.2C693.3 320.3 746.7 333.7 800 342C853.3 350.3 906.7 353.7 933.3 355.3L960 357L960 541L933.3 541C906.7 541 853.3 541 800 541C746.7 541 693.3 541 640 541C586.7 541 533.3 541 480 541C426.7 541 373.3 541 320 541C266.7 541 213.3 541 160 541C106.7 541 53.3 541 26.7 541L0 541Z" fill="#b5e998" stroke-linecap="round" stroke-linejoin="miter"></path></svg>