<?xml version="1.0" standalone="no"?>
<svg xmlns:xlink="http://www.w3.org/1999/xlink" id="wave" style="transform:rotate(0deg); transition: 0.3s" viewBox="0 0 1440 490" version="1.1" xmlns="http://www.w3.org/2000/svg"><defs><linearGradient id="sw-gradient-0" x1="0" x2="0" y1="1" y2="0"><stop stop-color="rgba(101, 200, 215, 1)" offset="0%"/><stop stop-color="rgba(157, 250, 255, 1)" offset="100%"/></linearGradient></defs><path style="transform:translate(0, 0px); opacity:1" fill="url(#sw-gradient-0)" d="M0,441L60,383.8C120,327,240,212,360,204.2C480,196,600,294,720,343C840,392,960,392,1080,334.8C1200,278,1320,163,1440,147C1560,131,1680,212,1800,277.7C1920,343,2040,392,2160,343C2280,294,2400,147,2520,106.2C2640,65,2760,131,2880,163.3C3000,196,3120,196,3240,196C3360,196,3480,196,3600,220.5C3720,245,3840,294,3960,294C4080,294,4200,245,4320,204.2C4440,163,4560,131,4680,98C4800,65,4920,33,5040,81.7C5160,131,5280,261,5400,294C5520,327,5640,261,5760,253.2C5880,245,6000,294,6120,326.7C6240,359,6360,376,6480,359.3C6600,343,6720,294,6840,294C6960,294,7080,343,7200,367.5C7320,392,7440,392,7560,383.8C7680,376,7800,359,7920,294C8040,229,8160,114,8280,57.2C8400,0,8520,0,8580,0L8640,0L8640,490L8580,490C8520,490,8400,490,8280,490C8160,490,8040,490,7920,490C7800,490,7680,490,7560,490C7440,490,7320,490,7200,490C7080,490,6960,490,6840,490C6720,490,6600,490,6480,490C6360,490,6240,490,6120,490C6000,490,5880,490,5760,490C5640,490,5520,490,5400,490C5280,490,5160,490,5040,490C4920,490,4800,490,4680,490C4560,490,4440,490,4320,490C4200,490,4080,490,3960,490C3840,490,3720,490,3600,490C3480,490,3360,490,3240,490C3120,490,3000,490,2880,490C2760,490,2640,490,2520,490C2400,490,2280,490,2160,490C2040,490,1920,490,1800,490C1680,490,1560,490,1440,490C1320,490,1200,490,1080,490C960,490,840,490,720,490C600,490,480,490,360,490C240,490,120,490,60,490L0,490Z"/></svg>