<?xml version="1.0" standalone="no"?>
<svg xmlns:xlink="http://www.w3.org/1999/xlink" id="wave" style="transform:rotate(0deg); transition: 0.3s" viewBox="0 0 1440 490" version="1.1" xmlns="http://www.w3.org/2000/svg"><defs><linearGradient id="sw-gradient-0" x1="0" x2="0" y1="1" y2="0"><stop stop-color="rgba(255, 192, 0, 1)" offset="0%"/><stop stop-color="rgba(255, 179, 11, 1)" offset="100%"/></linearGradient></defs><path style="transform:translate(0, 0px); opacity:1" fill="url(#sw-gradient-0)" d="M0,98L80,89.8C160,82,320,65,480,122.5C640,180,800,310,960,343C1120,376,1280,310,1440,285.8C1600,261,1760,278,1920,294C2080,310,2240,327,2400,302.2C2560,278,2720,212,2880,212.3C3040,212,3200,278,3360,302.2C3520,327,3680,310,3840,318.5C4000,327,4160,359,4320,343C4480,327,4640,261,4800,253.2C4960,245,5120,294,5280,318.5C5440,343,5600,343,5760,294C5920,245,6080,147,6240,98C6400,49,6560,49,6720,89.8C6880,131,7040,212,7200,269.5C7360,327,7520,359,7680,326.7C7840,294,8000,196,8160,138.8C8320,82,8480,65,8640,114.3C8800,163,8960,278,9120,302.2C9280,327,9440,261,9600,228.7C9760,196,9920,196,10080,228.7C10240,261,10400,327,10560,310.3C10720,294,10880,196,11040,171.5C11200,147,11360,196,11440,220.5L11520,245L11520,490L11440,490C11360,490,11200,490,11040,490C10880,490,10720,490,10560,490C10400,490,10240,490,10080,490C9920,490,9760,490,9600,490C9440,490,9280,490,9120,490C8960,490,8800,490,8640,490C8480,490,8320,490,8160,490C8000,490,7840,490,7680,490C7520,490,7360,490,7200,490C7040,490,6880,490,6720,490C6560,490,6400,490,6240,490C6080,490,5920,490,5760,490C5600,490,5440,490,5280,490C5120,490,4960,490,4800,490C4640,490,4480,490,4320,490C4160,490,4000,490,3840,490C3680,490,3520,490,3360,490C3200,490,3040,490,2880,490C2720,490,2560,490,2400,490C2240,490,2080,490,1920,490C1760,490,1600,490,1440,490C1280,490,1120,490,960,490C800,490,640,490,480,490C320,490,160,490,80,490L0,490Z"/><defs><linearGradient id="sw-gradient-1" x1="0" x2="0" y1="1" y2="0"><stop stop-color="rgba(255, 192, 0, 1)" offset="0%"/><stop stop-color="rgba(255, 179, 11, 1)" offset="100%"/></linearGradient></defs><path style="transform:translate(0, 50px); opacity:0.9" fill="url(#sw-gradient-1)" d="M0,49L80,114.3C160,180,320,310,480,375.7C640,441,800,441,960,441C1120,441,1280,441,1440,367.5C1600,294,1760,147,1920,130.7C2080,114,2240,229,2400,228.7C2560,229,2720,114,2880,57.2C3040,0,3200,0,3360,24.5C3520,49,3680,98,3840,106.2C4000,114,4160,82,4320,130.7C4480,180,4640,310,4800,310.3C4960,310,5120,180,5280,122.5C5440,65,5600,82,5760,147C5920,212,6080,327,6240,383.8C6400,441,6560,441,6720,375.7C6880,310,7040,180,7200,130.7C7360,82,7520,114,7680,138.8C7840,163,8000,180,8160,204.2C8320,229,8480,261,8640,228.7C8800,196,8960,98,9120,65.3C9280,33,9440,65,9600,65.3C9760,65,9920,33,10080,16.3C10240,0,10400,0,10560,73.5C10720,147,10880,294,11040,302.2C11200,310,11360,180,11440,114.3L11520,49L11520,490L11440,490C11360,490,11200,490,11040,490C10880,490,10720,490,10560,490C10400,490,10240,490,10080,490C9920,490,9760,490,9600,490C9440,490,9280,490,9120,490C8960,490,8800,490,8640,490C8480,490,8320,490,8160,490C8000,490,7840,490,7680,490C7520,490,7360,490,7200,490C7040,490,6880,490,6720,490C6560,490,6400,490,6240,490C6080,490,5920,490,5760,490C5600,490,5440,490,5280,490C5120,490,4960,490,4800,490C4640,490,4480,490,4320,490C4160,490,4000,490,3840,490C3680,490,3520,490,3360,490C3200,490,3040,490,2880,490C2720,490,2560,490,2400,490C2240,490,2080,490,1920,490C1760,490,1600,490,1440,490C1280,490,1120,490,960,490C800,490,640,490,480,490C320,490,160,490,80,490L0,490Z"/></svg>